<?xml version="1.0" standalone="no"?>
<!DOCTYPE svg PUBLIC "-//W3C//DTD SVG 20010904//EN"
 "http://www.w3.org/TR/2001/REC-SVG-20010904/DTD/svg10.dtd">
<svg version="1.0" xmlns="http://www.w3.org/2000/svg"
 width="894.000000pt" height="1048.000000pt" viewBox="0 0 894.000000 1048.000000"
 preserveAspectRatio="xMidYMid meet">

<g transform="translate(0.000000,1048.000000) scale(0.100000,-0.100000)"
fill="#000000" stroke="none">
<path d="M0 10346 c0 -131 1 -135 22 -138 22 -3 91 -80 438 -488 91 -107 263
-310 383 -450 285 -333 421 -492 782 -915 389 -455 532 -623 1370 -1603 138
-161 251 -298 253 -305 1 -7 -52 -75 -118 -152 l-120 -140 23 -20 c111 -93
177 -145 184 -144 4 0 53 54 108 120 55 65 103 119 107 119 7 0 131 -144 712
-824 104 -122 204 -238 223 -259 19 -20 31 -42 28 -47 -3 -6 -58 -10 -123 -11
l-117 0 -112 -132 c-100 -118 -243 -286 -693 -812 -75 -88 -257 -302 -405
-475 -324 -379 -619 -725 -850 -995 -94 -110 -306 -357 -470 -550 -350 -411
-486 -570 -782 -915 -120 -140 -292 -343 -383 -450 -347 -408 -416 -485 -438
-488 -21 -3 -22 -7 -22 -138 l0 -134 4470 0 4470 0 0 135 0 135 -30 0 c-26 0
-47 21 -177 173 -81 95 -303 355 -493 577 -190 223 -401 470 -470 551 -69 80
-264 309 -435 509 -170 200 -404 474 -520 609 -115 135 -514 602 -885 1036
-371 435 -835 978 -1032 1208 -197 230 -358 422 -358 427 0 6 44 10 104 10
l103 0 309 362 c170 199 338 397 374 439 36 43 70 78 76 78 6 1 59 -56 119
-126 59 -71 112 -129 116 -131 11 -4 197 150 198 163 1 6 -55 75 -124 155 -69
80 -124 151 -123 157 2 7 127 157 278 335 151 177 451 527 665 778 215 251
530 620 700 820 171 200 366 429 435 509 69 80 280 328 470 550 190 223 412
483 493 578 130 152 151 173 177 173 l30 0 0 135 0 135 -4470 0 -4470 0 0
-134z m8514 -144 c4 -7 -31 -50 -534 -637 -504 -590 -919 -1076 -1165 -1365
-137 -162 -270 -317 -295 -345 -25 -28 -133 -154 -240 -280 -274 -322 -619
-726 -698 -817 -37 -43 -71 -78 -77 -77 -5 0 -73 75 -150 167 -171 203 -554
652 -636 745 -32 38 -59 73 -59 79 0 19 -161 173 -182 174 -14 1 -48 -27 -99
-80 -44 -44 -79 -86 -79 -91 0 -6 -24 -37 -52 -71 -29 -33 -152 -177 -273
-319 -121 -142 -280 -328 -354 -414 -74 -86 -143 -168 -154 -183 -12 -16 -26
-28 -33 -28 -6 0 -47 42 -90 93 -124 145 -713 835 -869 1017 -78 91 -262 307
-410 480 -148 173 -346 405 -440 515 -94 110 -288 337 -430 504 -143 167 -380
444 -526 615 -147 171 -265 314 -262 319 6 9 8100 9 8107 -1z m-3777 -3038
c618 -723 595 -695 581 -714 -7 -10 -72 -87 -144 -171 -522 -611 -632 -740
-671 -784 l-44 -50 -37 45 c-20 24 -162 191 -315 370 -423 494 -482 564 -490
576 -4 7 49 77 126 166 72 85 168 197 212 249 341 402 521 609 526 607 4 -2
119 -134 256 -294z m-201 -2217 c39 -45 205 -239 369 -432 385 -450 566 -663
872 -1020 136 -160 349 -410 473 -555 124 -145 245 -287 270 -315 25 -28 93
-107 151 -176 168 -198 966 -1133 1279 -1499 536 -626 568 -665 563 -672 -5
-9 -8097 -11 -8106 -2 -3 4 31 50 77 103 83 97 623 729 881 1031 77 91 246
289 375 440 129 151 320 374 423 495 205 239 343 401 658 770 113 132 353 413
534 625 181 212 363 425 404 474 42 49 99 115 126 146 28 32 167 195 310 364
143 168 262 306 265 306 3 0 37 -37 76 -83z"/>
<path d="M5997 5996 c-48 -18 -85 -51 -103 -93 -21 -49 -20 -463 1 -504 l16
-29 187 2 187 3 0 150 0 150 -100 0 -100 0 -3 -42 c-3 -34 1 -44 17 -53 18 -9
21 -20 21 -75 0 -60 -14 -95 -39 -95 -27 0 -31 31 -31 246 0 232 4 253 44 238
13 -5 16 -21 16 -75 l0 -69 91 0 92 0 -7 66 c-9 86 -34 133 -84 162 -52 29
-152 38 -205 18z"/>
<path d="M6515 5988 c-3 -7 -4 -148 -3 -313 l3 -300 74 -3 74 -3 -6 110 c-3
61 -2 113 3 116 5 3 23 -41 40 -97 17 -57 33 -109 35 -115 3 -9 29 -13 84 -13
63 0 80 3 85 16 9 24 7 587 -3 602 -5 9 -27 12 -72 10 l-64 -3 -5 -145 -5
-145 -50 145 -50 145 -68 3 c-48 2 -69 -1 -72 -10z"/>
<path d="M7150 5993 c0 -63 -1 -601 0 -611 0 -10 33 -12 148 -10 l147 3 0 34
0 34 -60 1 -60 1 -3 77 -3 77 53 3 53 3 3 63 3 62 -56 0 -56 0 3 68 3 67 55 5
55 5 0 60 0 60 -142 3 c-79 1 -143 -1 -143 -5z"/>
<path d="M7655 5989 c-3 -8 -4 -149 -3 -314 l3 -300 82 -3 82 -3 3 127 c3 131
10 151 42 119 13 -13 16 -39 16 -131 l0 -114 80 0 80 0 0 110 c0 121 -13 163
-52 176 -21 6 -20 8 13 35 33 27 34 30 37 111 4 97 -13 141 -66 172 -45 25
-308 38 -317 15z m213 -121 c18 -18 15 -113 -3 -128 -30 -25 -45 -4 -45 63 0
35 3 67 7 70 10 11 28 8 41 -5z"/>
<path d="M2402 5983 c-12 -2 -40 -21 -61 -41 -32 -30 -40 -46 -46 -88 -16
-119 13 -178 127 -255 91 -62 99 -75 96 -139 -3 -51 -5 -55 -28 -55 -24 0 -25
3 -28 63 l-3 62 -79 0 -80 0 0 -57 c0 -111 -14 -103 195 -103 l184 0 6 55 c8
62 -1 138 -20 175 -17 33 -56 68 -133 119 -67 45 -87 77 -76 123 13 60 56 45
58 -19 l1 -38 80 0 80 0 -2 49 c-3 105 -52 148 -173 152 -41 1 -85 0 -98 -3z"/>
<path d="M1150 5676 l0 -306 199 0 198 0 7 46 c10 74 7 395 -5 444 -21 92 -62
111 -256 118 l-143 5 0 -307z m211 184 c18 -10 19 -23 19 -219 0 -172 -3 -211
-15 -221 -8 -7 -22 -10 -30 -6 -13 5 -15 38 -15 224 0 120 3 222 7 225 8 9 11
9 34 -3z"/>
<path d="M1780 5675 l0 -305 150 0 150 0 0 31 c0 30 0 30 -53 28 -30 -1 -59 1
-65 5 -7 4 -12 34 -12 76 0 77 3 80 76 80 l45 0 -3 58 -3 57 -55 5 -55 5 -3
44 c-6 81 1 91 62 91 l54 0 4 58 c2 31 3 60 1 65 -3 4 -69 7 -149 7 l-144 0 0
-305z"/>
<path d="M2905 5967 c-3 -7 -4 -143 -3 -302 l3 -290 83 -3 82 -3 0 306 0 305
-80 0 c-56 0 -82 -4 -85 -13z"/>
</g>
</svg>
